# AST/ASF file generated using VICON BodyLanguage
# -----------------------------------------------
:version 1.10
:name VICON
:units
  mass 1.0
  length 0.45
  angle deg
:documentation
   .ast/.asf automatically generated from VICON data using
   VICON BodyBuilder and BodyLanguage model FoxedUp or BRILLIANT.MOD
:root
   order TX TY TZ RX RY RZ
   axis XYZ
   position 0 0 0  
   orientation 0 0 0 
:bonedata
  begin
     id 1 
     name lhipjoint
     direction 0.589753 -0.68606 0.426044 
     length 2.54082 
     axis 0 0 0  XYZ
  end
  begin
     id 2 
     name lfemur
     direction 0.34202 -0.939693 0  
     length 7.04539  
     axis 0 0 20  XYZ
    dof rx ry rz
    limits (-160.0 20.0)
           (-70.0 70.0)
           (-60.0 70.0)
  end
  begin
     id 3 
     name ltibia
     direction 0.34202 -0.939693 0   
     length 7.83772   
     axis 0 0 20   XYZ
    dof rx
    limits (-10.0 170.0)
  end
  begin
     id 4 
     name lfoot
     direction 0.0596604 -0.163915 0.984669   
     length 2.39542   
     axis -90 7.62852e-016 20   XYZ
    dof rx rz
    limits (-45.0 90.0)
           (-70.0 20.0)
  end
  begin
     id 5 
     name ltoes
     direction 1.53514e-011 -4.21954e-011 1   
     length 1.2047   
     axis -90 7.62852e-016 20   XYZ
    dof rx
    limits (-90.0 20.0)
  end
  begin
     id 6 
     name rhipjoint
     direction -0.580585 -0.69168 0.429534   
     length 2.52018  
     axis 0 0 0  XYZ 
  end
  begin
     id 7 
     name rfemur
     direction -0.34202 -0.939693 0   
     length 7.0101   
     axis 0 0 -20   XYZ
    dof rx ry rz
    limits (-160.0 20.0)
           (-70.0 70.0)
           (-70.0 60.0)
  end
  begin
     id 8 
     name rtibia
     direction -0.34202 -0.939693 0   
     length 7.70628   
     axis 0 0 -20   XYZ
    dof rx
    limits (-10.0 170.0)
 end
 begin
     id 9 
     name rfoot
     direction -0.0696237 -0.19129 0.979061   
     length 2.52466  
     axis -90 -7.62852e-016 -20   XYZ
    dof rx rz
    limits (-45.0 90.0)
           (-20.0 70.0)
  end
  begin
     id 10 
     name rtoes
     direction -1.53519e-011 -4.21793e-011 1   
     length 1.266   
     axis -90 -7.62852e-016 -20   XYZ
    dof rx
    limits (-90.0 20.0)
  end
  begin
     id 11 
     name lowerback
     direction 0.00381965 0.995707 -0.0924856   
     length 2.20825   
     axis 0 0 0   XYZ
    dof rx ry rz
    limits (-20.0 45.0)
           (-30.0 30.0)
           (-30.0 30.0)
  end
  begin
     id 12 
     name upperback
     direction -0.0139043 0.999634 -0.0231929   
     length 2.21517   
     axis 0 0 0   XYZ
    dof rx ry rz
    limits (-20.0 45.0)
           (-30.0 30.0)
           (-30.0 30.0)
  end
  begin
     id 13 
     name thorax
     direction -0.0143933 0.999691 0.0202892   
     length 2.22911   
     axis 0 0 0   XYZ
    dof rx ry rz
    limits (-20.0 45.0)
           (-30.0 30.0)
           (-30.0 30.0)
  end
  begin
     id 14 
     name lowerneck
     direction -0.0251153 0.981819 0.188153   
     length 1.61782   
     axis 0 0 0   XYZ
    dof rx ry rz
    limits (-20.0 45.0)
           (-30.0 30.0)
           (-30.0 30.0)
  end
  begin
     id 15 
     name upperneck
     direction 0.0563891 0.969357 -0.239095   
     length 1.64526   
     axis 0 0 0   XYZ
    dof rx ry rz
    limits (-20.0 45.0)
           (-30.0 30.0)
           (-30.0 30.0)
  end
  begin
     id 16
     name head
     direction 0.0208328 0.99459 -0.101773  
     length 1.67436  
     axis 0 0 0   XYZ
    dof rx ry rz
    limits (-20.0 45.0)
           (-30.0 30.0)
           (-30.0 30.0)
  end
  begin
     id 17 
     name lclavicle
     direction 0.917689 0.397224 0.00772059  
     length 3.31102  
     axis 0 0 0   XYZ
    dof ry rz
    limits (-20.0 10.0)
           (0.0 20.0)
  end
  begin
     id 18 
     name lhumerus
     direction 1 -4.4896e-011 2.32308e-027   
     length 5.25537   
     axis 180 -30 -90   XYZ
    dof rx ry rz
    limits (-60.0 90.0)
           (-90.0 90.0)
           (-90.0 90.0)
  end
  begin
     id 19
     name lradius
     direction 1 -4.49005e-011 -2.04271e-027   
     length 3.38855   
     axis 180 -30 -90   XYZ
    dof rx
    limits (-10.0 170.0)
  end
  begin
     id 20
     name lwrist
     direction 1 -4.48892e-011 2.56952e-028   
     length 1.69428   
     axis -5.12785e-016 90 90   XYZ
    dof ry
    limits (-180.0 0.0)
 end
  begin
     id 21 
     name lhand
     direction 1 -4.48966e-011 5.13905e-028   
     length 0.614516   
     axis -3.27915e-016 90 90   XYZ
    dof rx rz
    limits (-90.0 90.0)
           (-45.0 45.0)
  end
  begin
     id 22 
     name lfingers
     direction 1 -4.48979e-011 1.02781e-027   
     length 0.495439   
     axis -6.5583e-016 90 90   XYZ
    dof rx
    limits (0.0 90.0)
  end
  begin
     id 23
     name lthumb
     direction 0.707107 -6.35001e-011 0.707107   
     length 0.711354   
     axis -90 45 2.85299e-015   XYZ
    dof rx rz
    limits (-45.0 45.0)
           (-45.0 45.0)
  end
  begin
     id 24 
     name rclavicle
     direction -0.938556 0.342765 -0.0403177   
     length 3.27019  
     axis 0 0 0   XYZ 
    dof ry rz
    limits (-10.0 20.0)
           (-20.0 0.0)
  end
  begin
     id 25 
     name rhumerus
     direction -1 -4.48966e-011 2.52291e-027  
     length 5.38183   
     axis 180 30 90   XYZ
    dof rx ry rz
    limits (-90.0 60.0)
           (-90.0 90.0)
           (-90.0 90.0)
  end
  begin
     id 26 
     name rradius
     direction -1 -4.4896e-011 1.5797e-027   
     length 3.16988   
     axis 180 30 90   XYZ
    dof rx
    limits (-10.0 170.0)
  end
  begin
     id 27 
     name rwrist
     direction -1 -4.48947e-011 2.56952e-028   
     length 1.58494   
     axis -5.12785e-016 -90 -90   XYZ
    dof ry
    limits (-180.0 0.0)
  end
  begin
     id 28
     name rhand
     direction -1 -4.49098e-011 5.13905e-028   
     length 0.637679   
     axis -3.27915e-016 -90 -90   XYZ
    dof rx rz
    limits (-90.0 90.0)
           (-45.0 45.0)
  end
  begin
     id 29
     name rfingers
     direction -1 -4.49026e-011 1.02781e-027   
     length 0.514113   
     axis -6.5583e-016 -90 -90   XYZ
    dof rx
    limits (0.0 90.0)
  end
  begin
     id 30
     name rthumb
     direction -0.707107 -6.3491e-011 0.707107   
     length 0.738167   
     axis -90 -45 -2.85299e-015   XYZ
    dof rx rz
    limits (-45.0 45.0)
           (-45.0 45.0)
  end
:hierarchy
  begin
    root lhipjoint rhipjoint lowerback
    lhipjoint lfemur
    lfemur ltibia
    ltibia lfoot
    lfoot ltoes
    rhipjoint rfemur
    rfemur rtibia
    rtibia rfoot
    rfoot rtoes
    lowerback upperback
    upperback thorax
    thorax lowerneck lclavicle rclavicle
    lowerneck upperneck
    upperneck head
    lclavicle lhumerus
    lhumerus lradius
    lradius lwrist
    lwrist lhand lthumb
    lhand lfingers
    rclavicle rhumerus
    rhumerus rradius
    rradius rwrist
    rwrist rhand rthumb
    rhand rfingers
  end

#!OML:ASF H:\Swim\Project 1\Capture day 1\Session 1\swimmer.ASF
:FULLY-SPECIFIED
:DEGREES
827
root 4.39795 12.1641 8.25207 72.8309 -2.37043 -0.390353
lowerback 10.4155 -0.154428 -0.667277
upperback -1.411 -0.4637 -2.35565
thorax -7.36303 -0.25222 -2.03413
lowerneck -30.0198 -5.68109 -7.26005
upperneck 16.8433 -7.53165 11.2766
head 11.0973 -2.46484 3.98788
rclavicle 7.95139e-016 -8.24956e-015
rhumerus -75.9263 23.3355 -89.2474
rradius 87.1869
rwrist 31.8267
rhand -37.899 31.6464
rfingers 7.12502
rthumb -10.9419 1.95152
lclavicle 7.95139e-016 -8.24956e-015
lhumerus -78.4228 -21.3464 84.0849
lradius 90.2231
lwrist -44.6226
lhand -41.333 -8.51034
lfingers 7.12502
lthumb -14.2525 20.9806
rfemur -11.5625 -2.64285 13.5427
rtibia 55.4671
rfoot -1.95475 -5.38492
rtoes -17.7732
lfemur -16.9208 8.83646 -16.7713
ltibia 59.0712
lfoot 6.02395 -0.153552
ltoes -5.83271
828
root 4.39774 12.1627 8.2433 72.5694 -2.38572 -0.350651
lowerback 10.6491 -0.176228 -0.669077
upperback -1.33896 -0.49627 -2.35874
thorax -7.42076 -0.267941 -2.03128
lowerneck -30.0506 -5.68917 -7.25074
upperneck 17.0044 -7.55734 11.2635
head 11.1644 -2.47284 3.97993
rclavicle -3.97569e-016 2.42517e-014
rhumerus -75.8568 23.3775 -89.1797
rradius 87.2469
rwrist 31.8596
rhand -37.9891 31.7275
rfingers 7.12502
rthumb -11.0287 2.03723
lclavicle -3.97569e-016 2.42517e-014
lhumerus -78.4398 -21.4552 84.0881
lradius 90.32
lwrist -44.5313
lhand -41.3046 -8.48745
lfingers 7.12502
lthumb -14.2252 21.0054
rfemur -11.5413 -2.49271 13.4331
rtibia 55.8086
rfoot -1.91385 -5.46982
rtoes -17.6528
lfemur -16.746 8.73042 -16.7641
ltibia 59.1107
lfoot 6.0835 -0.107428
ltoes -5.80966
829
root 4.3973 12.1611 8.23436 72.3069 -2.40303 -0.310799
lowerback 10.8787 -0.190627 -0.680071
upperback -1.27221 -0.520622 -2.36667
thorax -7.48151 -0.279393 -2.02966
lowerneck -30.0577 -5.70134 -7.23451
upperneck 17.1374 -7.59132 11.2541
head 11.218 -2.48499 3.97008
rclavicle -3.97569e-016 0
rhumerus -75.7915 23.4307 -89.13
rradius 87.2698
rwrist 31.901
rhand -38.1377 31.8535
rfingers 7.12502
rthumb -11.1721 2.17089
lclavicle -3.97569e-016 0
lhumerus -78.4639 -21.6096 84.1094
lradius 90.4034
lwrist -44.427
lhand -41.2979 -8.45534
lfingers 7.12502
lthumb -14.2187 21.038
rfemur -11.5144 -2.34984 13.3282
rtibia 56.1539
rfoot -1.86361 -5.54964
rtoes -17.5418
lfemur -16.5593 8.62062 -16.7612
ltibia 59.1365
lfoot 6.13266 -0.0419016
ltoes -5.78787
830
root 4.39661 12.1594 8.22536 72.0412 -2.42073 -0.273793
lowerback 11.1053 -0.197225 -0.697542
upperback -1.21086 -0.53593 -2.37894
thorax -7.54587 -0.286289 -2.03049
lowerneck -30.0417 -5.71838 -7.21742
upperneck 17.2442 -7.63426 11.2564
head 11.2595 -2.50094 3.96217
rclavicle -2.78299e-015 2.21645e-014
rhumerus -75.7328 23.4932 -89.1027
rradius 87.2521
rwrist 31.9512
rhand -38.3507 32.0241
rfingers 7.12502
rthumb -11.3775 2.35271
lclavicle -2.78299e-015 2.21645e-014
lhumerus -78.4929 -21.8034 84.1484
lradius 90.4707
lwrist -44.3136
lhand -41.3158 -8.40679
lfingers 7.12502
lthumb -14.236 21.0853
rfemur -11.476 -2.21334 13.2319
rtibia 56.496
rfoot -1.80658 -5.62853
rtoes -17.4421
lfemur -16.3571 8.51611 -16.7576
ltibia 59.1476
lfoot 6.1758 0.0289273
ltoes -5.76762
831
root 4.39532 12.1578 8.21589 71.7644 -2.43984 -0.241668
lowerback 11.3389 -0.194189 -0.725955
upperback -1.15364 -0.54061 -2.39516
thorax -7.61828 -0.287678 -2.03125
lowerneck -30.0075 -5.73922 -7.19426
upperneck 17.3282 -7.68516 11.2633
head 11.2903 -2.52052 3.953
rclavicle 0 1.39149e-015
rhumerus -75.6871 23.5583 -89.0964
rradius 87.2012
rwrist 32.0134
rhand -38.5993 32.2313
rfingers 7.12502
rthumb -11.6172 2.57336
lclavicle 0 1.39149e-015
lhumerus -78.5273 -22.0273 84.2
lradius 90.5192
lwrist -44.2075
lhand -41.3821 -8.33424
lfingers 7.12502
lthumb -14.2998 21.1534
rfemur -11.4146 -2.07042 13.148
rtibia 56.8271
rfoot -1.74878 -5.7168
rtoes -17.3075
lfemur -16.1321 8.40788 -16.7535
ltibia 59.1456
lfoot 6.21633 0.108867
ltoes -5.72488
832
root 4.39369 12.1565 8.20636 71.485 -2.46299 -0.212884
lowerback 11.5717 -0.183322 -0.765198
upperback -1.10168 -0.53693 -2.4143
thorax -7.6954 -0.284647 -2.03057
lowerneck -29.964 -5.76362 -7.17301
upperneck 17.3984 -7.74145 11.2781
head 11.3155 -2.54223 3.9458
rclavicle -5.56597e-015 -6.16232e-015
rhumerus -75.6563 23.6296 -89.1014
rradius 87.1342
rwrist 32.0898
rhand -38.851 32.4475
rfingers 7.12502
rthumb -11.86 2.80336
lclavicle -5.56597e-015 -6.16232e-015
lhumerus -78.5645 -22.2653 84.2553
lradius 90.5522
lwrist -44.1288
lhand -41.4992 -8.24013
lfingers 7.12502
lthumb -14.4127 21.2394
rfemur -11.339 -1.93251 13.0712
rtibia 57.1435
rfoot -1.68896 -5.80584
rtoes -17.1626
lfemur -15.8949 8.30946 -16.7529
ltibia 59.1297
lfoot 6.26502 0.173575
ltoes -5.68692
833
root 4.39192 12.1555 8.19705 71.2137 -2.49306 -0.18743
lowerback 11.7939 -0.167506 -0.81696
upperback -1.05398 -0.528641 -2.4343
thorax -7.77072 -0.278878 -2.02462
lowerneck -29.9302 -5.79284 -7.16475
upperneck 17.4628 -7.80169 11.3076
head 11.342 -2.56452 3.94547
rclavicle 1.19271e-015 -6.95746e-015
rhumerus -75.6418 23.7159 -89.1113
rradius 87.071
rwrist 32.1717
rhand -39.0887 32.6495
rfingers 7.12502
rthumb -12.0892 3.01875
lclavicle 1.19271e-015 -6.95746e-015
lhumerus -78.5952 -22.4929 84.3041
lradius 90.5796
lwrist -44.0828
lhand -41.6225 -8.14228
lfingers 7.12502
lthumb -14.5315 21.3288
rfemur -11.2622 -1.80241 12.9969
rtibia 57.4436
rfoot -1.62642 -5.89259
rtoes -16.9951
lfemur -15.6585 8.21269 -16.7628
ltibia 59.1
lfoot 6.31903 0.228508
ltoes -5.62813
834
root 4.39035 12.1548 8.18819 70.9691 -2.5264 -0.164725
lowerback 11.9878 -0.149887 -0.875049
upperback -1.01456 -0.518527 -2.4519
thorax -7.83858 -0.271907 -2.01292
lowerneck -29.9032 -5.82399 -7.17271
upperneck 17.5162 -7.85932 11.3489
head 11.3666 -2.58532 3.95249
rclavicle -3.18055e-015 4.77083e-015
rhumerus -75.6423 23.8169 -89.1171
rradius 87.0304
rwrist 32.2523
rhand -39.2918 32.8096
rfingers 7.12502
rthumb -12.285 3.19043
lclavicle -3.18055e-015 4.77083e-015
lhumerus -78.6183 -22.6902 84.3413
lradius 90.6074
lwrist -44.0853
lhand -41.7555 -8.04603
lfingers 7.12502
lthumb -14.6596 21.4158
rfemur -11.2069 -1.68547 12.9282
rtibia 57.7286
rfoot -1.56705 -5.97044
rtoes -16.8199
lfemur -15.4443 8.11479 -16.7847
ltibia 59.0577
lfoot 6.37469 0.267988
ltoes -5.58009
835
root 4.38936 12.1544 8.18001 70.7684 -2.55737 -0.143294
lowerback 12.1369 -0.133695 -0.928569
upperback -0.985655 -0.508855 -2.46653
thorax -7.89214 -0.265278 -2.0005
lowerneck -29.8871 -5.85687 -7.19825
upperneck 17.5585 -7.9144 11.4061
head 11.3904 -2.60405 3.96874
rclavicle 3.57812e-015 -1.35174e-014
rhumerus -75.6558 23.928 -89.1183
rradius 87.0212
rwrist 32.3197
rhand -39.4293 32.9086
rfingers 7.12502
rthumb -12.4176 3.29741
lclavicle 3.57812e-015 -1.35174e-014
lhumerus -78.6336 -22.8475 84.3643
lradius 90.6462
lwrist -44.1324
lhand -41.8729 -7.95006
lfingers 7.12502
lthumb -14.7727 21.5035
rfemur -11.1924 -1.58769 12.869
rtibia 57.9972
rfoot -1.49908 -6.02878
rtoes -16.6731
lfemur -15.2755 8.00747 -16.8187
ltibia 59.0075
lfoot 6.43094 0.297733
ltoes -5.5096
836
root 4.38912 12.154 8.17261 70.6201 -2.58586 -0.122262
lowerback 12.2288 -0.122015 -0.978169
upperback -0.967933 -0.503178 -2.47539
thorax -7.92511 -0.260607 -1.98326
lowerneck -29.8773 -5.8816 -7.22994
upperneck 17.5866 -7.95165 11.4553
head 11.4077 -2.61636 3.98613
rclavicle -2.38542e-015 4.96962e-015
rhumerus -75.6753 24.0497 -89.1143
rradius 87.0454
rwrist 32.3603
rhand -39.5061 32.9454
rfingers 7.12502
rthumb -12.4916 3.33873
lclavicle -2.38542e-015 4.96962e-015
lhumerus -78.6424 -22.9531 84.3796
lradius 90.7111
lwrist -44.2019
lhand -41.9393 -7.84078
lfingers 7.12502
lthumb -14.8367 21.608
rfemur -11.229 -1.51137 12.8179
rtibia 58.2489
rfoot -1.43994 -6.06528
rtoes -16.5454
lfemur -15.1591 7.88851 -16.8673
ltibia 58.9509
lfoot 6.46127 0.317762
ltoes -5.52147
837
root 4.38964 12.1533 8.16572 70.5261 -2.60191 -0.0984
lowerback 12.2594 -0.114001 -1.00916
upperback -0.963751 -0.498324 -2.48203
thorax -7.93776 -0.257089 -1.97384
lowerneck -29.864 -5.89857 -7.25365
upperneck 17.6036 -7.97702 11.4909
head 11.4178 -2.62489 3.99905
rclavicle 4.77083e-015 -5.96354e-015
rhumerus -75.7041 24.1565 -89.1121
rradius 87.095
rwrist 32.3668
rhand -39.5082 32.9183
rfingers 7.12502
rthumb -12.4936 3.31177
lclavicle 4.77083e-015 -5.96354e-015
lhumerus -78.6487 -23.0204 84.3877
lradius 90.7918
lwrist -44.3006
lhand -41.9637 -7.72192
lfingers 7.12502
lthumb -14.8602 21.7252
rfemur -11.3079 -1.45358 12.7839
rtibia 58.475
rfoot -1.3912 -6.07065
rtoes -16.3657
lfemur -15.1028 7.75172 -16.922
ltibia 58.8944
lfoot 6.47656 0.334682
ltoes -5.56328
838
root 4.3909 12.1523 8.15968 70.4743 -2.60559 -0.0718256
lowerback 12.2366 -0.109168 -1.02285
upperback -0.969251 -0.493803 -2.48586
thorax -7.93046 -0.25441 -1.97096
lowerneck -29.8466 -5.90915 -7.27197
upperneck 17.6131 -7.99279 11.5171
head 11.4225 -2.63023 4.00924
rclavicle 3.97569e-016 9.83984e-015
rhumerus -75.7408 24.247 -89.1127
rradius 87.1602
rwrist 32.3406
rhand -39.4645 32.8392
rfingers 7.12502
rthumb -12.4515 3.23009
lclavicle 3.97569e-016 9.83984e-015
lhumerus -78.6503 -23.0498 84.3906
lradius 90.8827
lwrist -44.4248
lhand -41.9427 -7.60174
lfingers 7.12502
lthumb -14.84 21.8468
rfemur -11.4137 -1.41909 12.7661
rtibia 58.6719
rfoot -1.34589 -6.03981
rtoes -16.226
lfemur -15.0884 7.61442 -16.9758
ltibia 58.8361
lfoot 6.47888 0.33773
ltoes -5.62093
839
root 4.39235 12.1509 8.15392 70.4367 -2.59872 -0.0433966
lowerback 12.1886 -0.104525 -1.02742
upperback -0.977177 -0.487354 -2.48673
thorax -7.91141 -0.251107 -1.97032
lowerneck -29.8296 -5.91398 -7.2805
upperneck 17.6251 -8.00091 11.528
head 11.426 -2.63332 4.01353
rclavicle 1.39149e-015 -2.56432e-014
rhumerus -75.7801 24.3151 -89.1135
rradius 87.229
rwrist 32.2912
rhand -39.3942 32.7278
rfingers 7.12502
rthumb -12.3837 3.11462
lclavicle 1.39149e-015 -2.56432e-014
lhumerus -78.6419 -23.0449 84.3897
lradius 90.9732
lwrist -44.5686
lhand -41.8958 -7.47075
lfingers 7.12502
lthumb -14.7948 21.9811
rfemur -11.5107 -1.38974 12.767
rtibia 58.8327
rfoot -1.31516 -5.98742
rtoes -16.0593
lfemur -15.0832 7.47654 -17.0236
ltibia 58.7769
lfoot 6.46782 0.335
ltoes -5.67296
840
root 4.39387 12.1493 8.14817 70.4009 -2.58524 -0.0158539
lowerback 12.1313 -0.0975303 -1.02865
upperback -0.986366 -0.476835 -2.48457
thorax -7.88823 -0.245902 -1.96906
lowerneck -29.8121 -5.91504 -7.28412
upperneck 17.6462 -8.00403 11.5284
head 11.4315 -2.63495 4.01418
rclavicle 6.95746e-015 1.13307e-014
rhumerus -75.8218 24.3593 -89.1085
rradius 87.2948
rwrist 32.2386
rhand -39.313 32.6023
rfingers 7.12502
rthumb -12.3055 2.98438
lclavicle 6.95746e-015 1.13307e-014
lhumerus -78.6239 -23.0093 84.3873
lradius 91.055
lwrist -44.7316
lhand -41.8489 -7.32953
lfingers 7.12502
lthumb -14.7496 22.1257
rfemur -11.5889 -1.36684 12.7827
rtibia 58.9593
rfoot -1.28775 -5.91591
rtoes -15.9476
lfemur -15.0714 7.34647 -17.0649
ltibia 58.7155
lfoot 6.45036 0.326507
ltoes -5.69942
841
root 4.39541 12.1475 8.1426 70.3608 -2.5682 0.00564511
lowerback 12.0763 -0.0858187 -1.02906
upperback -0.995863 -0.459754 -2.47927
thorax -7.86644 -0.237481 -1.96615
lowerneck -29.8015 -5.91766 -7.29229
upperneck 17.6826 -8.00839 11.5283
head 11.4442 -2.63691 4.01552
rclavicle 2.5842e-015 5.06901e-015
rhumerus -75.8668 24.3809 -89.0914
rradius 87.3552
rwrist 32.198
rhand -39.2435 32.4791
rfingers 7.12502
rthumb -12.2384 2.8572
lclavicle 2.5842e-015 5.06901e-015
lhumerus -78.5931 -22.9453 84.3819
lradius 91.1256
lwrist -44.9081
lhand -41.7943 -7.1907
lfingers 7.12502
lthumb -14.697 22.2684
rfemur -11.6448 -1.34743 12.8111
rtibia 59.0529
rfoot -1.25516 -5.83491
rtoes -15.8982
lfemur -15.0467 7.23299 -17.0994
ltibia 58.6528
lfoot 6.43089 0.315773
ltoes -5.70903
